<?xml version="1.0" encoding="UTF-8" standalone="no"?>
<svg
   id="Layer_1"
   data-name="Layer 1"
   version="1.1"
   viewBox="0 0 237 244"
   sodipodi:docname="MDW_1_White.svg"
   width="237"
   height="244"
   inkscape:version="1.4 (e7c3feb1, 2024-10-09)"
   xmlns:inkscape="http://www.inkscape.org/namespaces/inkscape"
   xmlns:sodipodi="http://sodipodi.sourceforge.net/DTD/sodipodi-0.dtd"
   xmlns="http://www.w3.org/2000/svg"
   xmlns:svg="http://www.w3.org/2000/svg">
  <sodipodi:namedview
     id="namedview14"
     pagecolor="#ffffff"
     bordercolor="#000000"
     borderopacity="0.25"
     inkscape:showpageshadow="2"
     inkscape:pageopacity="0.0"
     inkscape:pagecheckerboard="0"
     inkscape:deskcolor="#d1d1d1"
     inkscape:zoom="0.68223651"
     inkscape:cx="230.85836"
     inkscape:cy="-28.582463"
     inkscape:window-width="1440"
     inkscape:window-height="796"
     inkscape:window-x="0"
     inkscape:window-y="30"
     inkscape:window-maximized="1"
     inkscape:current-layer="Layer_1" />
  <defs
     id="defs1">
    <style
       id="style1">
      .cls-1 {
        fill: #fff;
        stroke-width: 0px;
      }
    </style>
  </defs>
  <g
     id="g3">
    <g
       id="g2">
      <g
         id="_Repetición_radial_"
         data-name="&amp;lt;Repetición radial&amp;gt;">
        <path
           class="cls-1"
           d="m 123.1,128.3 c 4,3.6 9.6,5.9 15.4,6.4 5.8,0.5 11.6,-0.7 16.7,-2.8 5.1,-2.2 9.4,-5.4 12.5,-9.3 3.1,-3.9 4.8,-8.4 5.5,-13 1.4,-9.3 -1.6,-18.9 -7.3,-26.8 -3,-3.9 -6.5,-7.6 -10.8,-10.5 l -1.6,-1.1 -1.7,-1 c -1.1,-0.7 -2.3,-1.4 -3.4,-2 -2.5,-1.1 -4.8,-2.4 -7.4,-3.2 -2.5,-1 -5.2,-1.7 -7.8,-2.4 -1.3,-0.4 -2.7,-0.6 -4.1,-0.9 -1.4,-0.3 -2.7,-0.6 -4.1,-0.7 l -4.2,-0.5 -4.2,-0.2 h -2.1 c 0,-0.1 -2.1,0 -2.1,0 -1.4,0 -2.8,0 -4.2,0.1 -2.8,0.3 -5.6,0.4 -8.3,1 -1.4,0.3 -2.7,0.4 -4.1,0.7 l -4,1 c -5.3,1.5 -10.5,3.3 -15.3,5.7 -19.4,9.4 -34.3,25.2 -40.9,43 -6.7,17.8 -4.6,37.7 4.7,54.7 4.6,8.6 11,16.5 19.1,23.1 8,6.6 17.6,12 28,16 10.4,4 21.6,6.5 33.1,7.6 5.7,0.5 11.5,0.6 17.3,0.3 5.8,-0.2 11.5,-1 17.2,-2 22.8,-4.1 44.1,-14.1 60.8,-28.1 -15.1,15.3 -36.2,26.7 -59.6,32.2 -5.9,1.3 -11.9,2.4 -18,2.8 -6.1,0.5 -12.2,0.7 -18.4,0.4 -12.3,-0.6 -24.4,-3.1 -35.8,-7.1 -5.7,-2 -11.2,-4.4 -16.4,-7.2 -1.3,-0.7 -2.6,-1.4 -3.8,-2.2 -1.3,-0.7 -2.5,-1.5 -3.7,-2.3 l -3.6,-2.4 -3.4,-2.7 C 44,187.8 36.8,179.1 31.5,169.8 20.9,151.1 18.4,129.2 25.8,109.2 29.6,99.3 35.6,90 43.4,81.9 45.3,79.8 47.5,78 49.5,76 c 2.3,-1.8 4.4,-3.7 6.8,-5.3 4.7,-3.4 9.9,-6.4 15.3,-9 5.4,-2.6 11.3,-4.6 17.3,-6.2 l 4.6,-1 c 1.5,-0.3 3.1,-0.5 4.7,-0.8 3.1,-0.6 6.3,-0.7 9.4,-1 12.6,-0.5 25.4,1.4 36.7,6.1 2.9,1 5.5,2.5 8.2,3.9 1.3,0.7 2.5,1.6 3.8,2.4 l 1.9,1.2 1.7,1.3 c 4.8,3.5 8.6,7.7 11.7,12.3 5.9,9.2 8.6,19.9 6.4,30.2 -1.1,5.1 -3.4,10.1 -7.2,14.3 -3.7,4.2 -8.8,7.5 -14.5,9.5 -5.7,2 -12,2.8 -18.1,1.9 -6.1,-0.9 -11.5,-3.7 -15.2,-7.6 z"
           id="path1" />
      </g>
      <g
         id="_Repetición_radial_-2"
         data-name="&amp;lt;Repetición radial&amp;gt;">
        <path
           class="cls-1"
           d="m 115,112.7 c -4.2,-3.5 -9.9,-5.6 -15.7,-5.8 -5.8,-0.2 -11.5,1.1 -16.5,3.4 -5,2.4 -9.2,5.7 -12,9.7 -2.9,4 -4.4,8.6 -4.8,13.2 -0.9,9.3 2.6,18.8 8.7,26.5 3.2,3.8 6.9,7.3 11.4,10.1 l 1.6,1.1 1.8,0.9 c 1.2,0.6 2.3,1.3 3.5,1.9 2.5,1 4.9,2.2 7.6,2.9 2.6,0.9 5.3,1.5 8,2.2 1.3,0.3 2.7,0.5 4.1,0.7 1.4,0.2 2.7,0.5 4.1,0.5 l 4.2,0.4 h 4.2 c 0,0 2.1,0.1 2.1,0.1 h 2.1 c 1.4,-0.2 2.8,-0.3 4.2,-0.4 2.7,-0.4 5.5,-0.6 8.2,-1.3 1.3,-0.3 2.7,-0.5 4,-0.9 l 4,-1.1 c 5.2,-1.7 10.3,-3.7 15,-6.3 18.9,-10.1 32.9,-26.5 38.6,-44.5 5.8,-18 2.6,-37.8 -7.6,-54.5 -5.1,-8.4 -11.9,-16.1 -20.3,-22.4 -8.3,-6.3 -18.2,-11.4 -28.8,-15 -10.6,-3.6 -22,-5.7 -33.5,-6.3 -5.8,-0.3 -11.5,-0.2 -17.3,0.3 -5.8,0.4 -11.5,1.4 -17.1,2.7 -22.5,5 -43.3,15.7 -59.3,30.3 14.2,-15.9 34.7,-28 57.9,-34.3 5.8,-1.5 11.7,-2.8 17.8,-3.5 6,-0.8 12.2,-1.2 18.3,-1.1 12.3,0.2 24.5,2.2 36.1,5.7 5.8,1.8 11.4,4 16.8,6.6 1.4,0.6 2.7,1.3 4,2 1.3,0.7 2.6,1.4 3.8,2.2 l 3.8,2.3 3.5,2.5 c 9.4,6.8 17.1,15.2 22.9,24.3 11.6,18.3 15.2,40.1 8.9,60.3 -3.3,10 -8.7,19.6 -16.1,27.9 -1.8,2.1 -3.9,4.1 -5.8,6.1 -2.2,1.9 -4.2,3.9 -6.5,5.6 -4.5,3.6 -9.5,6.8 -14.9,9.5 -5.3,2.8 -11.1,5 -17,6.8 l -4.5,1.2 c -1.5,0.4 -3.1,0.6 -4.6,0.9 -3.1,0.7 -6.2,0.9 -9.4,1.3 -12.6,0.9 -25.4,-0.5 -37,-4.8 -2.9,-0.9 -5.7,-2.3 -8.4,-3.6 -1.3,-0.7 -2.6,-1.5 -3.9,-2.2 l -1.9,-1.1 -1.8,-1.3 c -5,-3.3 -9,-7.4 -12.3,-11.8 -6.4,-9 -9.6,-19.5 -8,-29.9 0.8,-5.1 2.9,-10.2 6.4,-14.6 3.5,-4.3 8.4,-7.8 14,-10 5.6,-2.2 11.9,-3.3 18,-2.6 6.1,0.7 11.7,3.3 15.6,7.1 z"
           id="path2" />
      </g>
    </g>
    <polygon
       class="cls-1"
       points="149.3,135.9 123.4,150.3 98.1,135.1 98.5,105.5 124.3,91.1 149.7,106.3 "
       id="polygon2" />
  </g>
</svg>
