<?xml version="1.0" encoding="UTF-8"?>
<svg id="Primary_Logo_Horizontal" xmlns="http://www.w3.org/2000/svg" viewBox="0 0 1000 1000">
  <polygon points="919.092 689.102 870.361 689.102 870.361 333.856 510.954 513.558 489.158 513.558 129.751 333.856 129.751 689.102 81.02 689.102 81.02 294.432 116.283 272.64 500.056 464.524 883.829 272.64 919.092 294.432 919.092 689.102" fill="#10b1d8"/>
  <path d="M510.954,915.19l-35.263-21.792V104.056l35.263-21.792,394.671,197.337,13.468,21.792v394.671l-13.468,21.792-394.671,197.334ZM524.422,143.48v710.494l345.94-172.968v-364.554l-345.94-172.972Z" fill="#0f3e65"/>
  <g>
    <polygon points="489.158 915.19 94.488 717.856 81.02 696.064 81.02 301.393 129.751 301.393 129.751 681.006 475.691 853.974 475.691 498.727 524.422 498.727 524.422 893.398 489.158 915.19" fill="#10b1d8"/>
    <polygon points="510.954 915.19 475.691 893.398 475.691 498.727 524.422 498.727 524.422 853.974 870.361 681.006 870.361 301.393 919.092 301.393 919.092 696.064 905.625 717.856 510.954 915.19" fill="#10b1d8"/>
  </g>
  <g>
    <circle cx="500.056" cy="104.056" r="24.365" fill="#fff"/>
    <path d="M500.056,135.383c-17.275,0-31.327-14.052-31.327-31.327s14.052-31.327,31.327-31.327,31.327,14.052,31.327,31.327-14.052,31.327-31.327,31.327ZM500.056,86.652c-9.596,0-17.404,7.808-17.404,17.404s7.808,17.404,17.404,17.404,17.404-7.808,17.404-17.404-7.808-17.404-17.404-17.404Z" fill="#0f3e65"/>
  </g>
  <g>
    <circle cx="893.673" cy="299.119" r="24.365" fill="#fff"/>
    <path d="M893.673,330.446c-17.275,0-31.327-14.052-31.327-31.327s14.052-31.327,31.327-31.327,31.327,14.052,31.327,31.327-14.052,31.327-31.327,31.327ZM893.673,281.715c-9.596,0-17.404,7.808-17.404,17.404s7.808,17.404,17.404,17.404,17.404-7.808,17.404-17.404-7.808-17.404-17.404-17.404Z" fill="#10b1d8"/>
  </g>
  <g>
    <circle cx="893.673" cy="695.928" r="24.365" fill="#fff"/>
    <path d="M893.673,727.255c-17.275,0-31.327-14.052-31.327-31.327s14.052-31.327,31.327-31.327,31.327,14.052,31.327,31.327-14.052,31.327-31.327,31.327ZM893.673,678.524c-9.596,0-17.404,7.808-17.404,17.404s7.808,17.404,17.404,17.404,17.404-7.808,17.404-17.404-7.808-17.404-17.404-17.404Z" fill="#10b1d8"/>
  </g>
  <g>
    <circle cx="500.285" cy="895.945" r="24.365" fill="#fff"/>
    <path d="M500.284,927.271c-17.275,0-31.327-14.052-31.327-31.327s14.052-31.327,31.327-31.327,31.327,14.052,31.327,31.327-14.052,31.327-31.327,31.327ZM500.284,878.54c-9.596,0-17.404,7.808-17.404,17.404s7.808,17.404,17.404,17.404,17.404-7.808,17.404-17.404-7.808-17.404-17.404-17.404Z" fill="#10b1d8"/>
  </g>
  <g>
    <circle cx="500.285" cy="487.264" r="24.365" fill="#fff"/>
    <path d="M500.284,518.592c-17.275,0-31.327-14.052-31.327-31.327s14.052-31.327,31.327-31.327,31.327,14.052,31.327,31.327-14.052,31.327-31.327,31.327ZM500.284,469.861c-9.596,0-17.404,7.808-17.404,17.404s7.808,17.404,17.404,17.404,17.404-7.808,17.404-17.404-7.808-17.404-17.404-17.404Z" fill="#10b1d8"/>
  </g>
  <g>
    <circle cx="106.328" cy="299.119" r="24.365" fill="#fff"/>
    <path d="M106.327,330.446c-17.275,0-31.327-14.052-31.327-31.327s14.052-31.327,31.327-31.327,31.327,14.052,31.327,31.327-14.052,31.327-31.327,31.327ZM106.327,281.715c-9.596,0-17.404,7.808-17.404,17.404s7.808,17.404,17.404,17.404,17.404-7.808,17.404-17.404-7.808-17.404-17.404-17.404Z" fill="#10b1d8"/>
  </g>
  <g>
    <circle cx="106.328" cy="695.295" r="24.365" fill="#fff"/>
    <path d="M106.327,726.623c-17.275,0-31.327-14.052-31.327-31.327s14.052-31.327,31.327-31.327,31.327,14.052,31.327,31.327-14.052,31.327-31.327,31.327ZM106.327,677.892c-9.596,0-17.404,7.808-17.404,17.404s7.808,17.404,17.404,17.404,17.404-7.808,17.404-17.404-7.808-17.404-17.404-17.404Z" fill="#10b1d8"/>
  </g>
</svg>